<svg width="24" height="24" viewBox="0 0 24 24" fill="none" xmlns="http://www.w3.org/2000/svg">
<path d="M11.9412 2.15172C15.1295 2.15172 15.5059 2.16296 16.7643 2.22194C17.9272 2.27532 18.5593 2.46914 18.9806 2.63206C19.5368 2.84836 19.9357 3.10679 20.3543 3.52534C20.7728 3.94388 21.0312 4.33996 21.2475 4.89895C21.4104 5.32031 21.6043 5.95234 21.6576 7.11528C21.7138 8.37373 21.7279 8.75295 21.7279 11.9384C21.7279 15.1238 21.7166 15.5031 21.6576 16.7615C21.6043 17.9244 21.4104 18.5565 21.2475 18.9778C21.0312 19.534 20.7728 19.9329 20.3543 20.3514C19.9357 20.77 19.5396 21.0284 18.9806 21.2447C18.5593 21.4076 17.9272 21.6015 16.7643 21.6548C15.5059 21.711 15.1295 21.7251 11.9412 21.7251C8.75295 21.7251 8.37654 21.7138 7.11809 21.6548C5.95515 21.6015 5.32312 21.4076 4.90176 21.2447C4.34557 21.0284 3.94669 20.77 3.52815 20.3514C3.1096 19.9329 2.85117 19.5368 2.63487 18.9778C2.47195 18.5565 2.27813 17.9244 2.22475 16.7615C2.16857 15.5031 2.15453 15.1238 2.15453 11.9384C2.15453 8.75295 2.16576 8.37373 2.22475 7.11528C2.27813 5.95234 2.47195 5.32031 2.63487 4.89895C2.85117 4.34276 3.1096 3.94388 3.52815 3.52534C3.94669 3.10679 4.34276 2.84836 4.90176 2.63206C5.32312 2.46914 5.95515 2.27532 7.11809 2.22194C8.37654 2.16576 8.75576 2.15172 11.9412 2.15172ZM11.9412 0C8.69958 0 8.29227 0.0140452 7.01977 0.0730349C5.75009 0.132025 4.8821 0.331466 4.12085 0.629223C3.33713 0.935408 2.67139 1.34272 2.00565 2.00565C1.34272 2.66858 0.932599 3.33432 0.629223 4.12085C0.334275 4.87929 0.132025 5.74728 0.0730349 7.01977C0.0140452 8.29226 0 8.69958 0 11.9412C0 15.1828 0.0140452 15.5901 0.0730349 16.8626C0.132025 18.1323 0.331466 19.0003 0.629223 19.7615C0.935408 20.5453 1.34272 21.211 2.00565 21.8767C2.66858 22.5397 3.33432 22.9498 4.12085 23.2532C4.87929 23.5481 5.74728 23.7504 7.01977 23.8094C8.29227 23.8684 8.69958 23.8824 11.9412 23.8824C15.1828 23.8824 15.5901 23.8684 16.8626 23.8094C18.1323 23.7504 19.0003 23.5509 19.7615 23.2532C20.5453 22.947 21.211 22.5397 21.8768 21.8767C22.5397 21.2138 22.9498 20.5481 23.2532 19.7615C23.5481 19.0031 23.7504 18.1351 23.8094 16.8626C23.8684 15.5901 23.8824 15.1828 23.8824 11.9412C23.8824 8.69958 23.8684 8.29226 23.8094 7.01977C23.7504 5.75009 23.5509 4.8821 23.2532 4.12085C22.947 3.33713 22.5397 2.67139 21.8768 2.00565C21.2138 1.34272 20.5481 0.932599 19.7615 0.629223C19.0031 0.334275 18.1351 0.132025 16.8626 0.0730349C15.5901 0.0140452 15.1828 0 11.9412 0Z" fill="#00344A" style="fill:#00344A;fill:color(display-p3 0.0000 0.2039 0.2902);fill-opacity:1;"/>
<path d="M11.9399 5.80859C8.55497 5.80859 5.81055 8.55302 5.81055 11.9379C5.81055 15.3228 8.55497 18.0672 11.9399 18.0672C15.3247 18.0672 18.0692 15.3228 18.0692 11.9379C18.0692 8.55302 15.3247 5.80859 11.9399 5.80859ZM11.9399 15.9183C9.74319 15.9183 7.95946 14.1374 7.95946 11.9379C7.95946 9.73843 9.74038 7.9575 11.9399 7.9575C14.1393 7.9575 15.9203 9.73843 15.9203 11.9379C15.9203 14.1374 14.1393 15.9183 11.9399 15.9183Z" fill="#00344A" style="fill:#00344A;fill:color(display-p3 0.0000 0.2039 0.2902);fill-opacity:1;"/>
<path d="M18.3154 6.99803C19.1066 6.99803 19.748 6.35663 19.748 5.56542C19.748 4.77421 19.1066 4.13281 18.3154 4.13281C17.5242 4.13281 16.8828 4.77421 16.8828 5.56542C16.8828 6.35663 17.5242 6.99803 18.3154 6.99803Z" fill="#00344A" style="fill:#00344A;fill:color(display-p3 0.0000 0.2039 0.2902);fill-opacity:1;"/>
</svg>
