<?xml version="1.0" encoding="UTF-8"?>
<svg version="1.1" xmlns="http://www.w3.org/2000/svg" width="1080" height="1080">
<path d="M0 0 C356.4 0 712.8 0 1080 0 C1080 356.4 1080 712.8 1080 1080 C723.6 1080 367.2 1080 0 1080 C0 723.6 0 367.2 0 0 Z " fill="#EFE9DF" transform="translate(0,0)"/>
<path d="M0 0 C356.4 0 712.8 0 1080 0 C1080 356.4 1080 712.8 1080 1080 C723.6 1080 367.2 1080 0 1080 C0 723.6 0 367.2 0 0 Z M391.26147461 127.89331055 C389.57780405 127.95203667 389.57780405 127.95203667 387.86011994 128.01194918 C317.20073679 130.54053212 250.79955454 143.83716797 198 194 C197.46439453 194.50692383 196.92878906 195.01384766 196.37695312 195.53613281 C188.08997254 203.43389136 180.73659184 211.74355592 174 221 C173.58685547 221.56348145 173.17371094 222.12696289 172.74804688 222.70751953 C155.14171136 247.03132775 143.38222881 275.74401096 137 305 C136.82275391 305.81033691 136.64550781 306.62067383 136.46289062 307.45556641 C129.46591745 340.21125219 128.21100876 373.51682091 127.45361328 406.89599609 C127.43233879 407.82304061 127.41106431 408.75008512 127.38914514 409.70522189 C126.8598775 433.39721488 126.85262633 457.08854892 126.8656745 480.78535128 C126.86826874 487.00724099 126.86584177 493.22912949 126.86428833 499.45101929 C126.86248803 509.87343619 126.86481727 520.29584592 126.86962891 530.71826172 C126.87508174 542.66546819 126.87329273 554.61265762 126.8678025 566.55986369 C126.86322677 576.94421266 126.86264198 587.32855658 126.86524117 597.71290624 C126.86677783 603.86026944 126.86707106 610.00762469 126.86370468 616.15498734 C126.56970707 683.76993358 126.56970707 683.76993358 133 751 C133.22115479 752.47001465 133.22115479 752.47001465 133.44677734 753.96972656 C139.07162225 789.49076786 152.56946736 827.56372637 175 856 C175.64582031 856.83660156 176.29164063 857.67320312 176.95703125 858.53515625 C189.70865515 874.80793863 204.22173005 889.87373706 221 902 C221.56058105 902.41024414 222.12116211 902.82048828 222.69873047 903.24316406 C244.54488659 919.05955568 269.93818661 930.28856136 296 937 C296.78971191 937.2072168 297.57942383 937.41443359 298.39306641 937.62792969 C327.98897573 945.26521099 357.98807339 946.93392309 388.39193535 947.88680172 C390.85444571 947.96405974 393.31690395 948.04299305 395.77931404 948.12338352 C424.43472397 949.04855238 453.07637402 949.14953326 481.74472928 949.1343255 C488.15484737 949.13174554 494.56496423 949.13415407 500.9750824 949.13571167 C512.38050468 949.13762839 523.78591817 949.13458234 535.19133907 949.12945233 C545.49776175 949.12496044 555.8041732 949.12578695 566.1105957 949.13037109 C578.17879695 949.13573658 590.24698977 949.13770921 602.31519264 949.13475883 C608.66879066 949.13320836 615.02238096 949.13296903 621.37597847 949.13629532 C627.32799231 949.13919608 633.27998497 949.13715802 639.23199654 949.13140106 C641.40471359 949.13008676 643.57743245 949.13044477 645.75014877 949.13266373 C655.93162507 949.14209948 666.04007139 949.110574 676.19053936 948.23856735 C680.6988574 947.85574031 685.21339631 947.72066424 689.734375 947.5703125 C691.69761657 947.49890531 693.66083202 947.42677683 695.62402344 947.35400391 C696.62558472 947.31704407 697.627146 947.28008423 698.65905762 947.24200439 C722.30127747 946.34705286 745.60694686 945.05972674 768.69921875 939.54589844 C771.08650259 938.97947583 773.47990759 938.44641069 775.875 937.9140625 C825.85000555 926.4872841 872.21351082 896.99487617 902 855 C902.40299316 854.44666992 902.80598633 853.89333984 903.22119141 853.32324219 C917.42950136 833.70892572 926.60358181 811.94546092 934 789 C934.27424805 788.15630859 934.54849609 787.31261719 934.83105469 786.44335938 C945.30330062 753.57096526 947.14697045 718.72031512 947.74709016 684.47370178 C947.76786647 683.30142643 947.76786647 683.30142643 947.7890625 682.10546875 C947.80099032 681.40910283 947.81291814 680.71273692 947.82520741 679.995269 C947.91604313 675.41871852 948.10049463 670.85828298 948.36687011 666.28879517 C949.07353201 654.00440091 949.14852827 641.74560586 949.14526367 629.4440918 C949.14826466 627.15289761 949.15166931 624.86170392 949.15544128 622.57051086 C949.16419975 616.39931204 949.16661621 610.22812712 949.16725707 604.05692267 C949.16797336 600.17424171 949.17011871 596.29156416 949.17275429 592.40888405 C949.18151326 579.48412406 949.18617731 566.55937373 949.18542381 553.63461091 C949.18538386 552.94138804 949.1853439 552.24816517 949.18530273 551.53393555 C949.18526185 550.83982662 949.18522097 550.1457177 949.18517885 549.43057517 C949.18477501 538.25709324 949.19428229 527.08364543 949.2084411 515.91017332 C949.22299155 504.33233378 949.22970094 492.75451065 949.22884732 481.17666179 C949.22859649 474.71943526 949.23120982 468.26224721 949.24202538 461.80502892 C949.2808232 436.88223011 949.15688494 411.99957562 948.0715332 387.09692383 C948.02998057 386.14338874 947.98842793 385.18985366 947.94561613 384.20742357 C945.37789935 326.87632648 937.18967921 268.37222863 902 221 C901.3196167 220.08057617 901.3196167 220.08057617 900.62548828 219.14257812 C887.82202385 202.10616716 872.41370518 186.33216197 855 174 C854.43603516 173.59168945 853.87207031 173.18337891 853.29101562 172.76269531 C836.17626217 160.44888893 817.47310663 151.85963961 797.63085938 144.92089844 C795.38690292 144.13543038 793.15334123 143.32783653 790.921875 142.5078125 C757.54228465 130.67055689 721.79752449 129.40903724 686.75679016 128.31616211 C682.19212519 128.16356737 677.66464399 127.88696136 673.11416626 127.49447632 C662.71384614 126.74710392 652.3070622 126.85203113 641.88500977 126.85473633 C639.56827236 126.85173868 637.25153546 126.84833477 634.93479919 126.84455872 C628.66353759 126.83575873 622.39228965 126.8333818 616.12102246 126.83274293 C611.50825062 126.83190753 606.89548172 126.82899806 602.28271092 126.82590645 C589.80775026 126.81760513 577.33279671 126.81386253 564.85783339 126.81457619 C564.15137191 126.81461614 563.44491042 126.8146561 562.71704102 126.81469727 C561.65599215 126.81475859 561.65599215 126.81475859 560.57350796 126.81482115 C549.2239865 126.8152237 537.87449885 126.80575426 526.52498711 126.7915589 C514.76649695 126.77697345 503.00802296 126.77030113 491.24952358 126.77115268 C484.69135187 126.77147803 478.13321035 126.76882541 471.57504463 126.75797462 C444.78647252 126.71686163 418.03490134 126.93283845 391.26147461 127.89331055 Z " fill="#EFE9DF" transform="translate(0,0)"/>
<path d="M0 0 C5.9663736 0.00810004 11.93274295 0.00715676 17.89912044 0.00672468 C29.68004314 0.00623217 41.46093794 0.01517396 53.24185061 0.0299089 C64.60481148 0.04411299 75.96774795 0.05107341 87.3307178 0.05041671 C88.03717929 0.05037675 88.74364077 0.0503368 89.47151018 0.05029563 C90.52962926 0.0502351 90.52962926 0.0502351 91.60912448 0.05017334 C104.03762193 0.04951709 116.46610992 0.05463523 128.89460444 0.06296515 C134.13865047 0.06647258 139.38269308 0.06832464 144.62674022 0.06885886 C150.77595559 0.06986706 156.9251459 0.07600238 163.07435298 0.086025 C165.31803491 0.08892812 167.56171973 0.09017984 169.80540347 0.08959746 C180.18557825 0.08792319 190.49903467 0.10670097 200.84737468 0.99925971 C205.18703473 1.37020793 209.53099616 1.49451084 213.88320804 1.63025069 C262.12463081 3.31774568 307.6647851 8.5688114 351.61367679 30.23571944 C352.75191897 30.79646163 353.89016116 31.35720382 355.06289554 31.93493819 C367.89914935 38.57758341 379.70129508 46.77606966 390.61367679 56.23571944 C391.76996585 57.22571944 391.76996585 57.22571944 392.94961429 58.23571944 C445.92127323 104.69591201 466.43826225 167.05428957 471.23867679 235.86071944 C471.3014783 236.75728255 471.36427981 237.65384566 471.4289844 238.57757735 C473.68324727 271.34377497 473.76481077 304.05064622 473.74800229 336.87910056 C473.74569951 342.79641792 473.74747292 348.71373335 473.74892949 354.63105077 C473.75175954 367.05389235 473.74853557 379.47672647 473.74312912 391.89956683 C473.7386549 402.5083662 473.73944693 413.11715464 473.74404788 423.72595382 C473.74942318 436.12557426 473.75149384 448.52518824 473.74843562 460.92480969 C473.74688712 467.45985051 473.74663975 473.99488383 473.74997211 480.52992415 C473.75288555 486.66976833 473.75081208 492.80959205 473.74507785 498.94943404 C473.74376919 501.18573639 473.74411161 503.4220405 473.74634051 505.65834212 C473.75726504 517.74386848 473.55234155 529.76808608 472.8450439 541.83428359 C472.59269063 546.2537016 472.49620872 550.66936876 472.43789554 555.09509444 C471.99215548 585.90603409 470.73900791 617.35865729 462.61367679 647.23571944 C462.35715335 648.20283858 462.10062991 649.16995772 461.83633304 650.1663835 C446.58447484 707.06895016 414.59092717 755.60271684 363.19375491 785.99035811 C341.04253753 798.73410817 317.48524975 807.52018648 292.61367679 813.23571944 C291.90469241 813.39910811 291.19570804 813.56249679 290.46523929 813.73083663 C285.87597139 814.75604959 281.26273436 815.5438711 276.61367679 816.23571944 C275.80479007 816.36043624 274.99590335 816.48515304 274.16250491 816.61364913 C256.27032205 819.27578508 238.29158628 819.92311626 220.23843265 820.58947921 C219.2483269 820.62621245 218.25822116 820.6629457 217.23811221 820.70079207 C215.39268107 820.76799237 213.54715523 820.83267108 211.70152164 820.8940599 C207.00933199 821.06057358 202.35171116 821.34134456 197.67365909 821.74322677 C187.51092963 822.47361966 177.34673474 822.37551467 167.16274905 822.36511397 C164.91857254 822.3664715 162.67439624 822.3682534 160.43022037 822.37042403 C154.36250301 822.37496315 148.29480275 822.37322157 142.22708511 822.37004495 C135.82851835 822.36749529 129.42995296 822.36986682 123.03138614 822.37143111 C111.57380246 822.37336473 100.11622813 822.37026794 88.65864604 822.36517178 C78.35987966 822.3607316 68.06112459 822.36145828 57.76235843 822.36609054 C45.73072145 822.37149989 33.69909333 822.37340185 21.6674549 822.37047827 C15.32666095 822.36894031 8.9858747 822.36865115 2.64508128 822.37201476 C-26.04885325 822.38516984 -54.70670218 822.17203127 -83.38632321 821.23571944 C-85.69315596 821.1633408 -87.99998977 821.0909956 -90.30682492 821.01869369 C-152.88233683 819.03898341 -216.55283238 808.57820532 -265.38632321 766.23571944 C-266.16878415 765.56411788 -266.95124509 764.89251632 -267.75741696 764.20056319 C-280.17764601 753.28952454 -291.7029134 741.65474695 -301.38632321 728.23571944 C-301.80188474 727.66450362 -302.21744626 727.0932878 -302.64560056 726.50476241 C-315.513912 708.60953164 -324.22636239 688.99346768 -331.38632321 668.23571944 C-331.67877927 667.40862472 -331.97123532 666.58152999 -332.27255368 665.72937179 C-352.14983193 609.1898184 -348.55300603 544.88139783 -348.52064872 485.79362321 C-348.51806717 479.57635403 -348.52047871 473.35908611 -348.52203488 467.14181685 C-348.52384138 456.70159805 -348.52149201 446.26138638 -348.51669431 435.82116866 C-348.51126901 423.88005017 -348.51300795 411.93894881 -348.51852071 399.99783075 C-348.52311292 389.62201955 -348.52367261 379.24621339 -348.52108204 368.8704015 C-348.51955049 362.72815993 -348.51923643 356.5859263 -348.52261853 350.44368529 C-348.53374893 326.98565607 -348.46990164 303.53745013 -347.92489743 280.08484054 C-347.90441791 279.20260794 -347.88393838 278.32037534 -347.86283827 277.41140842 C-347.64516872 268.2915369 -347.36500929 259.17498009 -347.01110959 250.05935836 C-346.98192815 249.30513197 -346.9527467 248.55090559 -346.92268097 247.77382386 C-344.54658016 189.06850869 -331.86473226 128.75530852 -292.38632321 83.23571944 C-291.70312009 82.44165694 -291.01991696 81.64759444 -290.31601071 80.82946944 C-279.67942963 68.74066142 -268.38055681 57.75383636 -255.38632321 48.23571944 C-253.79884274 47.06589522 -253.79884274 47.06589522 -252.17929196 45.87243819 C-213.85834874 18.51383631 -168.65431903 7.23522656 -122.38632321 3.23571944 C-121.59784466 3.16377962 -120.8093661 3.0918398 -119.99699426 3.01771998 C-108.25697971 2.02481906 -96.48599501 1.62450145 -84.71469235 1.18762374 C-83.51678512 1.14315403 -82.31887788 1.09868433 -81.08467042 1.05286705 C-54.0548616 0.07439559 -27.04454626 -0.04474643 0 0 Z M-79.93148923 75.12512374 C-81.0498 75.16400761 -82.16811078 75.20289149 -83.32030976 75.24295366 C-141.94316785 77.33310285 -193.67277129 85.67277304 -235.44540524 130.07458663 C-239.67096939 134.77957957 -243.12288208 139.82318293 -246.38632321 145.23571944 C-246.84458493 145.95880294 -247.30284665 146.68188643 -247.77499509 147.42688155 C-269.46545097 182.24558948 -271.65872608 224.4004647 -273.38632321 264.23571944 C-273.42779037 265.17490124 -273.46925752 266.11408303 -273.51198125 267.08172488 C-274.59031026 292.52923689 -274.55078902 317.97783348 -274.55358028 343.44383669 C-274.55430033 347.14986208 -274.5564523 350.85588397 -274.5590775 354.56190848 C-274.56875272 368.2524832 -274.57234916 381.94304673 -274.57150207 395.63362462 C-274.57107231 406.95210082 -274.58242469 418.27054031 -274.59736961 429.58900756 C-274.61061284 440.00388692 -274.61580289 450.41875177 -274.61517054 460.83363944 C-274.61492026 466.99842319 -274.61750148 473.16316658 -274.62834859 479.32794166 C-274.68025644 511.01595453 -274.01302203 542.58813633 -272.38632321 574.23571944 C-272.3287307 575.37035034 -272.3287307 575.37035034 -272.26997471 576.52790308 C-270.04302128 620.26002037 -261.74547721 664.64968148 -230.38632321 697.23571944 C-229.91210935 697.74103194 -229.43789548 698.24634444 -228.94931149 698.76696944 C-205.68439785 723.51149888 -175.0076732 736.97756624 -141.64413571 741.84118819 C-139.38632321 742.23571944 -139.38632321 742.23571944 -137.38632321 743.23571944 C-134.87697235 743.61489288 -132.38305568 743.94436652 -129.86288571 744.23181319 C-129.10480618 744.31918242 -128.34672666 744.40655166 -127.56567502 744.49656844 C-120.05625463 745.3271179 -112.54279456 745.80960402 -104.9986279 746.1861589 C-102.80975314 746.29579372 -100.62151965 746.41442668 -98.43319821 746.53454757 C-93.41897703 746.80212687 -88.40306426 747.02123848 -83.38632321 747.23571944 C-82.39754115 747.27830445 -81.40875909 747.32088946 -80.39001393 747.36476493 C-56.42309576 748.35620561 -32.46851954 748.38453147 -8.48458004 748.37004495 C-2.8386529 748.36746051 2.80727287 748.36987602 8.4532001 748.37143111 C17.94460224 748.37323828 27.43599655 748.37088799 36.92739749 748.36609054 C47.75214145 748.36068076 58.57686647 748.36239249 69.40160996 748.36791694 C78.82544552 748.37252623 88.24927553 748.37306043 97.67311186 748.37047827 C103.24326212 748.36895371 108.81340364 748.36861128 114.38355327 748.37201476 C137.7524547 748.38429183 161.1109072 748.24601693 184.47573733 747.78601241 C185.50348321 747.76633352 186.53122908 747.74665462 187.59011877 747.72637939 C230.41223409 747.41436044 230.41223409 747.41436044 272.61367679 741.23571944 C273.80219241 740.99337569 274.99070804 740.75103194 276.21523929 740.50134444 C300.67815664 735.36306871 324.57065511 725.67756598 343.61367679 709.23571944 C344.15186038 708.77971358 344.69004397 708.32370772 345.24453616 707.8538835 C371.68968697 685.26854662 385.57925092 654.68121696 392.61367679 621.23571944 C392.76520709 620.54154796 392.91673739 619.84737647 393.07285953 619.13216949 C394.34285738 613.11222237 395.1425783 607.17411521 395.63809085 601.04480147 C395.71986701 600.05889085 395.80164317 599.07298022 395.8858974 598.05719352 C396.96495646 584.48515196 397.6406647 570.89139225 398.22305179 557.29040694 C398.25565317 556.535616 398.28825456 555.78082506 398.32184386 555.00316167 C400.32400506 508.16125506 399.99690754 461.27837117 399.88630033 414.40412951 C399.86088752 403.23401427 399.85521466 392.06392711 399.85124469 380.89378715 C399.84725668 370.07569022 399.83479958 359.25760537 399.82089782 348.43951726 C399.81684112 345.02662568 399.81389564 341.61373449 399.81110263 338.20084167 C399.80616575 332.84669816 399.79589043 327.49258845 399.78166461 322.13846183 C399.77720084 320.19518948 399.77431731 318.25191266 399.77325702 316.30863547 C399.76594438 305.35387129 399.50901051 294.4614297 398.8439281 283.52592444 C398.58539343 279.12971297 398.49535322 274.73624687 398.43789554 270.33337569 C398.41894481 269.0978395 398.41894481 269.0978395 398.39961123 267.83734298 C398.38702022 266.86906569 398.38702022 266.86906569 398.37417483 265.88122725 C397.98480376 239.84497689 397.02088432 212.36798278 389.61367679 187.23571944 C389.39985354 186.50337081 389.1860303 185.77102218 388.96572757 185.01648116 C385.77025563 174.32055782 381.74278379 164.14911953 376.61367679 154.23571944 C376.30172366 153.63243819 375.98977054 153.02915694 375.66836429 152.40759444 C371.2014807 143.90962078 365.98457917 136.44545731 359.61367679 129.23571944 C358.42258304 127.84546554 358.42258304 127.84546554 357.20742679 126.42712569 C351.52994362 119.95012354 345.46843973 114.4413655 338.61367679 109.23571944 C337.84797366 108.64275069 337.08227054 108.04978194 336.29336429 107.43884444 C303.67972442 83.33791735 262.91690669 77.62964609 223.48867679 76.17321944 C220.45897786 76.05635616 217.42937409 75.93748738 214.39984012 75.81642318 C212.53428711 75.74237565 210.66863052 75.67086561 208.80285525 75.60264754 C204.07726566 75.42026165 199.38276693 75.13189226 194.67082095 74.72821212 C184.50217892 73.99821569 174.33123236 74.08772752 164.14126468 74.09045577 C161.8934919 74.08745786 159.64571963 74.08405389 157.39794803 74.08027816 C151.31469687 74.07148033 145.2314598 74.06910131 139.1482029 74.06846237 C135.31875998 74.06774741 131.48932054 74.06560432 127.65987849 74.06296515 C114.90620669 74.05418945 102.15254641 74.04954378 89.39887232 74.05029563 C88.71331981 74.05033558 88.02776729 74.05037554 87.32144046 74.05041671 C86.63500885 74.05045759 85.94857725 74.05049847 85.24134468 74.05054059 C74.23131541 74.05094302 63.22132101 74.04147683 52.21130175 74.02727834 C40.80085399 74.01268517 29.39042742 74.00620123 17.97996968 74.00687212 C11.61741392 74.0071222 5.25489729 74.00455498 -1.10765004 73.99369407 C-27.39974914 73.95207331 -53.65428679 74.18427214 -79.93148923 75.12512374 Z " fill="#000000" transform="translate(475.38632321357727,126.76428055763245)"/>
<path d="M0 0 C0.7708493 0.00376648 1.54169861 0.00753296 2.33590698 0.01141357 C13.54798559 0.07557301 24.64147669 0.158459 35.6875 2.25 C36.63254395 2.42772949 37.57758789 2.60545898 38.55126953 2.78857422 C60.83761506 7.14465202 81.69840221 14.49724395 101.6875 25.25 C103.15316406 26.00023437 103.15316406 26.00023437 104.6484375 26.765625 C153.16392202 52.06596363 185.84690194 98.13964529 203.90234375 148.6484375 C216.24581335 188.00873816 216.95941127 234.10754006 203.6875 273.25 C203.39858887 274.1167334 203.10967773 274.9834668 202.81201172 275.87646484 C198.6688967 288.16820774 193.89829143 299.86252921 187.6875 311.25 C187.36813477 311.8471582 187.04876953 312.44431641 186.71972656 313.05957031 C159.73752559 363.3259041 113.15616518 398.25358371 59.0625 414.6875 C5.16795891 430.31325712 -52.1827111 422.37988266 -101.35644531 396.16015625 C-125.05555671 383.08313268 -146.6339864 364.46941028 -163.3125 343.25 C-164.53453125 341.73599609 -164.53453125 341.73599609 -165.78125 340.19140625 C-200.46775669 296.76953559 -214.30107883 239.33824622 -208.625 184.5625 C-202.72580692 137.91836282 -180.75349483 95.82101497 -148.3125 62.25 C-147.64089844 61.52683594 -146.96929687 60.80367188 -146.27734375 60.05859375 C-140.78047537 54.28163017 -134.50644896 49.47801972 -128.17138672 44.66894531 C-126.38303007 43.30383777 -124.61487758 41.91573286 -122.84765625 40.5234375 C-99.49344677 22.42824517 -71.82881833 11.22557357 -43.25 4.5625 C-42.38850342 4.35987549 -41.52700684 4.15725098 -40.6394043 3.94848633 C-27.0737992 0.90925318 -13.84124728 -0.10310962 0 0 Z " fill="#000000" transform="translate(536.3125,326.75)"/>
<path d="M0 0 C1.09828125 0.30292969 2.1965625 0.60585938 3.328125 0.91796875 C24.34392339 7.21815939 42.15914227 19.0493723 58 34 C58.74894531 34.68449219 59.49789062 35.36898437 60.26953125 36.07421875 C84.55447717 59.08324807 97.86501681 93.76536105 99.25390625 126.71484375 C99.35486184 131.15352457 99.23636907 135.56733823 99 140 C98.96277832 140.72219727 98.92555664 141.44439453 98.88720703 142.18847656 C96.75584532 177.27396937 79.7344547 210.81084537 53.87646484 234.37353516 C30.13468845 254.95221253 0.595603 267.99209588 -31 269 C-32.02222656 269.03996094 -33.04445313 269.07992188 -34.09765625 269.12109375 C-72.7360263 269.88934204 -106.58073303 256.37681067 -134.54614258 229.8371582 C-142.62190959 221.98540972 -149.18079628 213.63186491 -155 204 C-155.40444336 203.33274902 -155.80888672 202.66549805 -156.22558594 201.97802734 C-165.53239738 186.29684261 -171.17085955 168.97592316 -174 151 C-174.17917969 149.98292969 -174.35835938 148.96585938 -174.54296875 147.91796875 C-178.84298192 111.05546267 -168.61383949 75.57016828 -145.8125 46.4375 C-121.61592139 18.21522092 -89.64341715 -1.52595881 -52 -4.6875 C-34.42127381 -5.63344042 -16.95420697 -5.09074733 0 0 Z " fill="#EFE9DF" transform="translate(576,406)"/>
<path d="M0 0 C11.23917853 8.4541035 18.32517491 19.12237806 21 33 C22.57334241 46.80385319 19.43204909 59.71011137 10.8671875 70.79296875 C10.25101563 71.52128906 9.63484375 72.24960937 9 73 C8.40445313 73.71800781 7.80890625 74.43601562 7.1953125 75.17578125 C2.01096699 80.88716603 -3.94000159 84.0414367 -11 87 C-11.80179688 87.34160156 -12.60359375 87.68320312 -13.4296875 88.03515625 C-24.94460646 92.20301412 -38.00980995 91.03259773 -49 86 C-62.44102198 79.4681001 -71.44972463 68.83323164 -76.375 54.8125 C-80.02146594 41.77408607 -78.68170657 29.01969291 -72.45703125 17.02734375 C-65.20000188 4.95443677 -55.16447739 -3.69431755 -41.5625 -7.9375 C-26.85999434 -11.33851065 -12.45228252 -8.3441248 0 0 Z " fill="#010101" transform="translate(786,278)"/>
</svg>
