<svg width="20" height="20" viewBox="0 0 20 20" fill="none" xmlns="http://www.w3.org/2000/svg">
<path d="M19.7186 19.694H15.6319V12.0887C15.6319 11.9544 15.5132 11.4514 15.4687 11.2906C15.1434 10.1171 14.3127 9.72916 13.1392 9.83518C11.6055 9.97373 11.1519 11.2845 11.0658 12.6303V19.694H6.97852V6.52743H10.8844V8.331C11.029 8.36293 10.9814 8.3063 11.0188 8.25269C12.2459 6.46056 13.9307 5.9654 16.0662 6.30334C18.7252 6.72502 19.5414 8.8105 19.7179 11.2472V19.694H19.7186Z" fill="#00344A" style="fill:#00344A;fill:color(display-p3 0.0000 0.2039 0.2902);fill-opacity:1;"/>
<path d="M4.39475 6.52734H0.308105V19.6939H4.39475V6.52734Z" fill="#00344A" style="fill:#00344A;fill:color(display-p3 0.0000 0.2039 0.2902);fill-opacity:1;"/>
<path d="M2.37163 4.74566C3.68144 4.74566 4.74325 3.68331 4.74325 2.37283C4.74325 1.06235 3.68144 0 2.37163 0C1.06181 0 0 1.06235 0 2.37283C0 3.68331 1.06181 4.74566 2.37163 4.74566Z" fill="#00344A" style="fill:#00344A;fill:color(display-p3 0.0000 0.2039 0.2902);fill-opacity:1;"/>
</svg>
