<?xml version="1.0" encoding="UTF-8"?>
<svg version="1.1" xmlns="http://www.w3.org/2000/svg" width="1080" height="1080">
<path d="M0 0 C356.4 0 712.8 0 1080 0 C1080 356.4 1080 712.8 1080 1080 C723.6 1080 367.2 1080 0 1080 C0 723.6 0 367.2 0 0 Z " fill="#EFE9DF" transform="translate(0,0)"/>
<path d="M0 0 C0.90655334 -0.00960754 1.81310669 -0.01921509 2.74713135 -0.02911377 C3.73131042 -0.03336365 4.7154895 -0.03761353 5.72949219 -0.04199219 C6.75830505 -0.04769226 7.78711792 -0.05339233 8.84710693 -0.05926514 C11.03949964 -0.06872918 13.23190665 -0.07525467 15.42431641 -0.07910156 C18.69428759 -0.08862806 21.96357981 -0.11955865 25.23339844 -0.15136719 C65.01233435 -0.35116653 106.16821662 7.94609298 138.52636719 32.16113281 C139.81607422 33.11439453 139.81607422 33.11439453 141.13183594 34.08691406 C171.61635328 57.4955339 188.29024628 92.62514329 197.52636719 129.16113281 C197.75163086 130.02303223 197.97689453 130.88493164 198.20898438 131.77294922 C201.60155945 144.78911279 204.00412442 157.79860657 205.52636719 171.16113281 C205.60503548 171.79537434 205.68370378 172.42961587 205.76475596 173.08307683 C207.77304469 189.50889906 207.80374951 205.89576596 207.75849843 222.41315448 C207.74974025 226.4353173 207.75279269 230.45747509 207.75430298 234.47964478 C207.75534413 241.42341992 207.74914888 248.36715704 207.7378273 255.31092262 C207.72146964 265.35003932 207.71635388 275.38913791 207.71385132 285.42826649 C207.70949019 301.72196343 207.69622435 318.01564017 207.67724609 334.30932617 C207.65884611 350.12312725 207.64473282 365.9369228 207.63623047 381.75073242 C207.63569447 382.73786297 207.63515848 383.72499352 207.63460624 384.74203712 C207.63044661 392.46375567 207.62653304 400.18547434 207.62269711 407.90719306 C207.60388055 445.65852486 207.563632 483.40980601 207.52636719 521.16113281 C155.38636719 521.16113281 103.24636719 521.16113281 49.52636719 521.16113281 C49.5121875 499.92769531 49.49800781 478.69425781 49.48339844 456.81738281 C49.46333587 443.34601752 49.44204676 429.87467083 49.41503906 416.40332031 C49.40090713 409.32226633 49.3870844 402.24121184 49.3737793 395.16015625 C49.37209911 394.2728036 49.37041891 393.38545094 49.36868781 392.47120881 C49.34210086 378.192396 49.33293178 363.91362337 49.33032576 349.63478833 C49.32725371 334.95349567 49.30516326 320.27231803 49.26584262 305.59107733 C49.24221519 296.55021245 49.232982 287.50957801 49.24285408 278.46868664 C49.24821779 272.24789298 49.2349159 266.0273036 49.20770428 259.80656809 C49.19259033 256.23087575 49.18496503 252.65564121 49.19976997 249.07993698 C49.31500681 218.47568831 45.26465431 182.17623387 22.52636719 159.16113281 C2.61648433 141.57168235 -21.94456206 138.88008772 -47.47363281 140.16113281 C-68.3977829 142.09359048 -87.94032151 151.53657725 -101.54394531 167.65332031 C-123.58563426 196.29859218 -126.92909244 232.46750399 -126.90600586 267.31835938 C-126.91339908 270.09961183 -126.92524351 272.88084139 -126.93688965 275.66207886 C-126.95949898 281.6083865 -126.97152984 287.55463628 -126.97601891 293.50098419 C-126.98252487 302.09799628 -127.00553925 310.69490452 -127.0323622 319.29187438 C-127.07546031 333.24567499 -127.1055235 347.19947117 -127.12719727 361.15332031 C-127.14825818 374.69435802 -127.17561114 388.23535951 -127.21118164 401.77636719 C-127.21339515 402.62194309 -127.21560866 403.467519 -127.21788925 404.33871841 C-127.23525333 410.95336544 -127.252978 417.56801148 -127.27081645 424.18265724 C-127.3579019 456.50879319 -127.41358539 488.83491347 -127.47363281 521.16113281 C-179.61363281 521.16113281 -231.75363281 521.16113281 -285.47363281 521.16113281 C-285.47363281 353.19113281 -285.47363281 185.22113281 -285.47363281 12.16113281 C-235.64363281 12.16113281 -185.81363281 12.16113281 -134.47363281 12.16113281 C-134.47363281 35.26113281 -134.47363281 58.36113281 -134.47363281 82.16113281 C-130.47865789 81.61059749 -130.47865789 81.61059749 -128.97363281 79.14941406 C-128.23113281 77.82490234 -128.23113281 77.82490234 -127.47363281 76.47363281 C-123.31660221 69.60471958 -118.24623777 63.77978787 -112.9296875 57.80078125 C-111.60352096 56.30739854 -110.29167707 54.80132793 -108.98144531 53.29394531 C-104.45440984 48.14033053 -99.79058301 43.49115747 -94.47363281 39.16113281 C-93.98797852 38.75781738 -93.50232422 38.35450195 -93.00195312 37.93896484 C-68.4910497 17.64666519 -41.004348 6.21961025 -9.63989258 1.54663086 C-0.99693584 0.00856835 -0.99693584 0.00856835 0 0 Z " fill="#000000" transform="translate(708.4736328125,393.8388671875)"/>
<path d="M0 0 C52.14 0 104.28 0 158 0 C158 167.97 158 335.94 158 509 C105.86 509 53.72 509 0 509 C0 341.03 0 173.06 0 0 Z " fill="#000000" transform="translate(166,406)"/>
<path d="M0 0 C0.9580957 0.32145996 0.9580957 0.32145996 1.93554688 0.64941406 C16.64997584 5.69877105 28.02658514 14.20254369 39 25 C39.65742188 25.63292969 40.31484375 26.26585937 40.9921875 26.91796875 C49.16526582 35.44885465 55.43999002 47.80666629 59 59 C59.55494141 60.67835938 59.55494141 60.67835938 60.12109375 62.390625 C66.89936121 84.69098041 63.6788818 109.23569025 53.109375 129.77734375 C49.15714307 137.10302477 44.53206543 143.76960678 39 150 C38.39800781 150.68449219 37.79601562 151.36898437 37.17578125 152.07421875 C21.82618735 168.4535548 -0.81836273 178.41781708 -23.12890625 179.37109375 C-51.52783711 179.91377636 -73.81375558 171.521979 -94.625 151.875 C-104.7725167 141.36141127 -111.1201715 129.68330288 -116 116 C-116.51046875 114.85917969 -116.51046875 114.85917969 -117.03125 113.6953125 C-120.01949153 105.3812534 -120.35736523 97.01089715 -120.3125 88.25 C-120.30404053 86.52366333 -120.30404053 86.52366333 -120.29541016 84.76245117 C-119.92279936 58.66678312 -108.86525029 37.86525029 -90.66796875 19.66796875 C-66.81182294 -2.95490296 -31.09363027 -10.56133855 0 0 Z " fill="#000000" transform="translate(274,158)"/>
</svg>
