<?xml version="1.0" encoding="UTF-8"?>
<svg version="1.1" xmlns="http://www.w3.org/2000/svg" width="1080" height="1080">
<path d="M0 0 C356.4 0 712.8 0 1080 0 C1080 356.4 1080 712.8 1080 1080 C723.6 1080 367.2 1080 0 1080 C0 723.6 0 367.2 0 0 Z " fill="#EFE9DF" transform="translate(0,0)"/>
<path d="M0 0 C2.47803182 0.00567364 4.9560567 0.00847331 7.43409348 0.0110817 C47.16981295 0.07175194 86.236401 2.74781597 125.6565361 7.75555801 C129.44614346 8.23686713 133.23842815 8.68987574 137.03300095 9.13055801 C149.81725723 10.64661941 162.3382 13.0428983 174.93680954 15.66962051 C179.13253928 16.5256551 183.34012993 17.31075392 187.54960251 18.09589005 C207.86950526 21.89926333 228.3453679 25.94281324 248.0994072 32.09930801 C250.96784563 32.9898083 253.84737054 33.78658876 256.7556572 34.53680801 C274.1362389 39.03187292 291.06196441 44.82717889 308.04484177 50.61432266 C311.03189769 51.62973497 314.02294309 52.63323364 317.0134697 53.63837051 C344.53898397 62.9540434 371.5401384 73.57026171 398.1150322 85.31805801 C399.30967087 85.84399551 400.50430954 86.36993301 401.73514938 86.91180801 C418.68859662 94.38266838 435.49040628 102.13880383 452.1150322 110.31805801 C452.99288376 110.74914871 453.87073532 111.18023941 454.77518845 111.62439346 C461.07891906 114.72093741 467.37601825 117.83056361 473.66736984 120.95218277 C475.81861533 122.01843161 477.97111869 123.08214685 480.12495041 124.14316177 C504.78064073 136.30063115 525.73039407 148.68171388 535.06425095 176.10712051 C540.17478103 195.73804561 537.56733605 215.18057177 528.08768845 233.03290176 C517.85561313 250.07285293 502.98025031 259.92128147 484.22050095 265.55633926 C478.22243052 267.02756409 472.27623717 267.54353534 466.1150322 267.63055801 C465.46147751 267.65956192 464.80792282 267.68856583 464.13456345 267.71844864 C450.68955607 267.88241214 438.50836007 262.00653564 426.8650322 255.98212051 C425.43688844 255.25764715 424.00799466 254.5346507 422.5784111 253.81302261 C418.83598662 251.9201566 415.10176453 250.01170896 411.36979294 248.09833145 C404.75257119 244.70786063 398.12346054 241.34075324 391.4900322 237.98212051 C390.76774807 237.61597893 390.04546394 237.24983734 389.30129242 236.87260056 C307.7323791 195.59698455 219.21907474 165.61105769 118.64332199 149.70907974 C116.1431038 149.32239953 113.6447825 148.92496011 111.14652634 148.52582169 C49.59159457 138.80890156 -16.65985088 138.53189319 -78.60255814 145.08050919 C-81.02886858 145.33303493 -83.45631165 145.57041612 -85.88447952 145.80438614 C-110.65727784 148.19333401 -135.2377271 151.39977945 -159.8224678 155.25555801 C-160.65376205 155.38567276 -161.4850563 155.51578751 -162.34154129 155.64984512 C-171.11258604 157.0265677 -179.8528253 158.47044136 -188.56880569 160.16620255 C-206.01091987 163.50338513 -223.40633264 164.86659442 -239.8849678 157.31805801 C-240.85305374 156.88364395 -241.82113968 156.44922989 -242.81856155 156.00165176 C-259.61982553 147.63676715 -271.24788899 133.6897048 -277.8849678 116.31805801 C-284.12937756 97.16853477 -283.25431673 79.25017531 -274.6349678 61.00555801 C-265.7640975 44.28085987 -251.62184643 31.9384308 -233.8849678 25.31805801 C-222.7188959 21.93339078 -211.05470046 20.31331535 -199.5724678 18.38055801 C-198.00820557 18.11535355 -198.00820557 18.11535355 -196.41234207 17.84479141 C-180.10966123 15.08735218 -163.81658232 12.70963314 -147.39766312 10.75360489 C-143.88455225 10.31800649 -140.38149452 9.83472067 -136.8771553 9.33368301 C-122.0134616 7.21728206 -107.14588721 5.57310926 -92.1974678 4.19305801 C-91.34488388 4.11265274 -90.49229996 4.03224747 -89.61388016 3.94940567 C-59.76976582 1.15852189 -29.96592473 -0.06989318 0 0 Z " fill="#00344A" transform="translate(424.8849678039551,272.681941986084)"/>
<path d="M0 0 C2.26172371 -0.00150779 4.5234199 -0.00640676 6.78513718 -0.01184845 C46.35149775 -0.08319588 85.21117587 3.32734521 124.11378098 10.6205368 C127.10911892 11.18151798 130.10624347 11.72961535 133.10499191 12.27190399 C159.61229478 17.19275843 185.92230513 24.06350706 211.49555588 32.54857635 C214.05965643 33.39675781 216.62641144 34.2366146 219.19337082 35.07610321 C249.54589242 45.02362964 279.31620306 56.02991646 308.80030441 68.31096649 C309.50312546 68.60273773 310.2059465 68.89450897 310.93006516 69.19512177 C330.10406523 77.15685911 348.99322528 85.75393885 367.85718918 94.41851044 C369.73311866 95.28010865 371.6094356 96.14085747 373.48585129 97.00139618 C379.97392973 99.97885139 386.45518838 102.97047819 392.92872238 105.97942352 C395.69634994 107.26276315 398.46865401 108.53550488 401.24171066 109.80706024 C422.36733512 119.55066613 439.58296614 131.30265592 448.07593918 154.01067352 C454.31629101 171.57389169 453.95598904 191.27441449 446.18629074 208.26750946 C437.08007907 227.23640149 422.41187109 239.59511943 402.67530441 246.56096649 C398.05715224 248.01255298 393.64775594 249.11344724 388.80030441 249.31096649 C387.7007341 249.36252899 386.60116379 249.41409149 385.46827316 249.46721649 C367.14581742 249.92008872 353.88380367 244.0065941 337.69581223 236.2208786 C331.2000902 233.10269777 324.68671461 230.02121179 318.17530441 226.93596649 C317.40386093 226.57019501 316.63241745 226.20442352 315.83759689 225.82756805 C301.91281109 219.23258997 287.88240173 212.95504449 273.68946457 206.95745087 C271.01138362 205.82566361 268.33700301 204.68566223 265.66505051 203.53948212 C241.68513652 193.25832454 217.4130981 183.96604914 192.80030441 175.31096649 C192.04024094 175.04350616 191.28017746 174.77604584 190.49708176 174.50048065 C155.68279151 162.28145549 120.24083523 153.16355677 83.80030441 147.31096649 C82.25849066 147.05142206 80.71681366 146.79106336 79.17530441 146.52971649 C71.03057295 145.17806887 62.89062821 144.01651255 54.67530441 143.18596649 C53.56928879 143.07285126 53.56928879 143.07285126 52.44092941 142.95745087 C36.58845175 141.44574552 20.77796084 141.10914457 4.86280441 141.12346649 C3.31067245 141.12337585 3.31067245 141.12337585 1.7271843 141.12328339 C-14.01466671 141.1363565 -29.53675829 141.64247783 -45.19969559 143.31096649 C-46.78411238 143.45915625 -48.36874293 143.6050824 -49.95360184 143.74846649 C-68.26093074 145.46294999 -86.53131607 148.03777327 -104.60814285 151.3783493 C-128.35361938 155.73966786 -148.48731499 156.64131 -169.55907059 142.75627899 C-185.49874953 130.942829 -197.01570407 115.23269452 -200.19969559 95.31096649 C-201.95093253 75.15430673 -198.44098571 56.15678144 -185.69188309 40.01799774 C-174.33854448 26.55441218 -159.29869559 18.22288396 -142.19969559 14.37346649 C-141.12953201 14.12822235 -140.05936844 13.88297821 -138.95677567 13.63030243 C-123.25611818 10.23124667 -107.26484283 8.34507684 -91.34738541 6.26648712 C-86.67712907 5.65374954 -82.02273111 4.98754529 -77.37157059 4.24065399 C-51.75079082 0.24409782 -25.86797778 0.01079212 0 0 Z " fill="#00344A" transform="translate(394.1996955871582,485.6890335083008)"/>
<path d="M0 0 C1.22172913 0.00376648 2.44345825 0.00753296 3.70220947 0.01141357 C48.74570122 0.17354344 92.58066655 4.79332158 136.4375 15.25 C137.39221191 15.4759082 138.34692383 15.70181641 139.33056641 15.93457031 C145.76686329 17.49249159 152.10532228 19.31444831 158.4375 21.25 C159.42762085 21.55200317 159.42762085 21.55200317 160.43774414 21.86010742 C197.3761092 33.1606191 233.51386286 46.70565417 268.4375 63.25 C269.35023682 63.67676025 270.26297363 64.10352051 271.20336914 64.54321289 C276.29327275 66.98886228 280.74030453 69.60025454 285 73.3125 C285.8199646 74.02140381 285.8199646 74.02140381 286.65649414 74.74462891 C299.10195054 85.85879584 308.30690444 101.72690259 309.61767578 118.56445312 C310.65313015 137.90777981 307.62877796 157.03605372 294.42675781 172.13696289 C292.17049968 174.58896416 289.82161954 176.92148675 287.4375 179.25 C286.45136719 180.26707031 286.45136719 180.26707031 285.4453125 181.3046875 C272.17117834 194.12305739 253.26678555 198.00929725 235.45751953 197.84594727 C225.51247017 197.49181858 217.50626831 195.19516138 208.4375 191.25 C207.29812988 190.7559668 206.15875977 190.26193359 204.98486328 189.75292969 C199.58955752 187.40458397 194.20305831 185.03676313 188.82739258 182.64379883 C176.85619183 177.33106337 164.70872664 172.71158673 152.37060547 168.31103516 C149.68188817 167.33840611 147.01277939 166.32819938 144.34765625 165.29296875 C133.08651548 160.93951278 121.69147966 157.78922227 109.97607422 154.89355469 C106.71199708 154.06607754 103.48473287 153.12239389 100.25 152.1875 C88.50566376 149.0372235 76.42305156 147.22872892 64.4375 145.25 C63.2923291 145.06026611 63.2923291 145.06026611 62.12402344 144.86669922 C57.90638728 144.18744235 53.68679817 143.68550021 49.4375 143.25 C48.61427246 143.16121582 47.79104492 143.07243164 46.94287109 142.98095703 C12.97556858 139.43659483 -22.36235545 139.76577939 -56.17651367 144.78662109 C-61.06569927 145.45571578 -65.88496229 145.43428779 -70.8125 145.4375 C-71.78574219 145.44974609 -72.75898438 145.46199219 -73.76171875 145.47460938 C-93.3110242 145.51355221 -109.89447179 138.16807412 -124.14453125 124.82421875 C-137.51068532 110.59433905 -144.12457882 92.54560129 -143.84570312 73.08007812 C-143.2274171 53.80079559 -135.56372325 36.65962227 -121.5625 23.25 C-114.57470257 17.38370092 -106.95626568 12.81577264 -98.5625 9.25 C-97.97686279 8.99887451 -97.39122559 8.74774902 -96.7878418 8.48901367 C-89.74803116 5.79595443 -82.36990372 5.18848061 -74.9309082 4.42456055 C-72.68769093 4.19394499 -70.44644522 3.94905472 -68.20507812 3.70117188 C-63.3283379 3.17173148 -58.44698572 2.70187478 -53.5625 2.25 C-52.10914749 2.11389313 -52.10914749 2.11389313 -50.62643433 1.97503662 C-33.73011965 0.42899047 -16.96199919 -0.0800465 0 0 Z " fill="#00344A" transform="translate(383.5625,710.75)"/>
<path d="M0 0 C1.98 0.66 3.96 1.32 6 2 C4.68 3.32 3.36 4.64 2 6 C1.34 4.02 0.68 2.04 0 0 Z " fill="#1D4A5C" transform="translate(944,1062)"/>
</svg>
