<svg xmlns="http://www.w3.org/2000/svg" xmlns:xlink="http://www.w3.org/1999/xlink" width="1080" zoomAndPan="magnify" viewBox="0 0 810 809.999993" height="1080" preserveAspectRatio="xMidYMid meet" version="1.2">
<defs>
<clipPath id="circular_clip">
<circle cx="405" cy="405" r="374.5"/>
</clipPath>
</defs>
<g id="circular_design">
<!-- Beige circular background -->
<circle cx="405" cy="405" r="374.5" style="fill:#F0EAE0;fill-opacity:1;stroke:none;"/>

<!-- Main content clipped to circle -->
<g clip-path="url(#circular_clip)">
<!-- Inner beige circle -->
<circle cx="405" cy="405" r="341.16" style="fill:#F0EAE0;fill-opacity:1;stroke:none;"/>

<!-- Blue ring with design -->
<path style="stroke:none;fill-rule:evenodd;fill:#00344a;fill-opacity:1;" d="M 97.28125 405.054688 C 97.28125 235.105469 235.050781 97.335938 405 97.335938 C 574.949219 97.335938 712.71875 235.105469 712.71875 405.054688 C 712.71875 575 574.949219 712.773438 405 712.773438 C 235.050781 712.773438 97.28125 575 97.28125 405.054688 Z M 405 30.449219 C 198.113281 30.449219 30.398438 198.164062 30.398438 405.054688 C 30.398438 611.9375 198.113281 779.65625 405 779.65625 C 611.890625 779.65625 779.601562 611.9375 779.601562 405.054688 C 779.601562 198.164062 611.890625 30.449219 405 30.449219 Z M 235.050781 328.84375 C 368.175781 303.421875 470.089844 317.132812 596.800781 384.5625 C 616.363281 394.976562 640.664062 387.554688 651.078125 367.988281 C 661.492188 348.425781 654.070312 324.121094 634.5 313.710938 C 491.476562 237.597656 370.933594 221.1875 219.996094 250.007812 C 198.226562 254.164062 183.949219 275.179688 188.105469 296.953125 C 192.261719 318.722656 213.277344 333 235.050781 328.84375 Z M 445.191406 596.492188 C 387.191406 570 347.957031 562.535156 287.628906 569.960938 C 265.632812 572.667969 245.605469 557.03125 242.898438 535.035156 C 240.191406 513.035156 255.828125 493.007812 277.824219 490.300781 C 354.808594 480.824219 408.9375 491.691406 478.535156 523.484375 C 498.695312 532.691406 507.574219 556.5 498.367188 576.660156 C 489.160156 596.816406 465.351562 605.699219 445.191406 596.492188 Z M 264.214844 445.789062 C 358.34375 427.078125 423.273438 444.296875 531.914062 496.773438 C 551.871094 506.414062 575.863281 498.046875 585.503906 478.089844 C 595.140625 458.132812 586.777344 434.140625 566.820312 424.5 C 451 368.558594 367.207031 343.484375 248.570312 367.066406 C 226.832031 371.386719 212.710938 392.511719 217.03125 414.25 C 221.351562 435.988281 242.476562 450.109375 264.214844 445.789062 Z M 264.214844 445.789062 "/>
</g>
</g>
</svg>