<?xml version="1.0" encoding="UTF-8"?>
<svg version="1.1" xmlns="http://www.w3.org/2000/svg" width="1080" height="1080">
<path d="M0 0 C356.4 0 712.8 0 1080 0 C1080 356.4 1080 712.8 1080 1080 C723.6 1080 367.2 1080 0 1080 C0 723.6 0 367.2 0 0 Z " fill="#EFE9DF" transform="translate(0,0)"/>
<path d="M0 0 C2.44178007 -0.00202889 4.88355933 -0.00537355 7.32533604 -0.00990558 C12.59578188 -0.01670447 17.86613806 -0.01435643 23.13657379 -0.003582 C30.97401753 0.01239526 38.81139333 0.01091525 46.64884847 0.00612571 C59.84197993 -0.00143283 73.03506932 0.00500029 86.22819328 0.01973724 C99.28708157 0.0343066 112.34595141 0.04302618 125.4048481 0.04392242 C126.21931742 0.04398352 127.03378674 0.04404461 127.87293695 0.04410756 C131.17956087 0.0443371 134.48618479 0.04452427 137.79280871 0.0446557 C167.88207202 0.04586509 197.97130965 0.06152734 228.06056213 0.08624268 C256.43784281 0.10954669 284.8151079 0.12371164 313.19239807 0.1272583 C314.06716612 0.12736982 314.94193418 0.12748133 315.84321035 0.12759623 C319.37008782 0.1280451 322.89696528 0.12848708 326.42384275 0.12892865 C328.18160664 0.12914904 329.93937052 0.12937033 331.6971344 0.12959253 C333.45070168 0.12981389 335.20426896 0.13003267 336.95783624 0.13024884 C364.90168523 0.13376631 392.84553131 0.14522559 420.78937737 0.15805517 C428.96093964 0.1617697 437.13250171 0.16503567 445.30406451 0.16730404 C462.47975358 0.17211733 479.65543334 0.17922969 496.83111595 0.19545171 C503.93155697 0.20208633 511.03199051 0.20724705 518.13243484 0.20791245 C524.63534031 0.20852422 531.1382275 0.21413001 537.64112759 0.22323194 C539.989992 0.22573184 542.33885889 0.2265767 544.6877244 0.22557315 C575.03879726 0.2151125 575.03879726 0.2151125 586.67018127 2.74249268 C587.9205719 3.01061768 589.17096252 3.27874268 590.45924377 3.55499268 C591.68385315 3.82311768 592.90846252 4.09124268 594.17018127 4.36749268 C595.31229065 4.59436768 596.45440002 4.82124268 597.63111877 5.05499268 C647.1489312 15.026543 692.44197088 41.9363816 721.10694885 84.00958252 C741.57818006 115.00039575 749.18825347 148.80216545 748.91055214 185.63402569 C748.89032231 189.2297322 748.90577112 192.82534186 748.91619873 196.42106628 C748.93112188 203.41774504 748.91466375 210.41398955 748.88664783 217.41061414 C748.85509877 225.59100586 748.85571665 233.77131015 748.85716557 241.95175122 C748.8586586 256.55990434 748.83141745 271.16785853 748.78761292 285.77593994 C748.74529849 299.89479185 748.72410438 314.01346906 748.72608948 328.13238525 C748.72620935 329.00358289 748.72632921 329.87478053 748.72645272 330.77237809 C748.72657378 331.64219518 748.72669484 332.51201227 748.72681957 333.40818745 C748.72889683 349.57567423 748.71118422 365.74308809 748.68435993 381.91055109 C748.67537358 387.59066952 748.67212886 393.27077437 748.67076302 398.95089912 C748.66870185 405.88130646 748.65510377 412.8115905 748.62776459 419.74194563 C748.61406109 423.26660617 748.60471736 426.7911108 748.60854721 430.31579971 C748.6163469 450.37835186 747.55594083 469.40727022 741.60768127 488.67999268 C741.0888739 490.38191772 741.0888739 490.38191772 740.55958557 492.1182251 C732.58909555 517.46569202 720.42965837 541.09589043 703.17018127 561.36749268 C702.15791584 562.58188094 701.14621238 563.79673783 700.13502502 565.01202393 C671.17940867 599.55468319 631.28120926 623.811712 587.17018127 633.36749268 C585.71225159 633.68846924 585.71225159 633.68846924 584.22486877 634.01593018 C569.24416214 637.02954171 553.8483173 636.51253347 538.64685059 636.50120544 C536.26147458 636.50307574 533.87609889 636.50537732 531.49072367 636.50807077 C526.3216683 636.51289784 521.15262151 636.51464669 515.98356438 636.51361465 C508.29636858 636.51208364 500.60918306 636.51626492 492.92198927 636.52148928 C478.3900048 636.53114012 463.85802386 636.53397268 449.32603657 636.53454634 C438.09943273 636.53500661 426.87283027 636.53706876 415.64622688 636.54024696 C412.40979737 636.54114457 409.17336786 636.54203438 405.93693835 636.54292184 C405.13225558 636.54314289 404.32757282 636.54336394 403.49850573 636.54359168 C380.87624413 636.54974251 358.25398301 636.55369259 335.63172054 636.55324841 C334.77949826 636.55323283 333.92727598 636.55321725 333.04922879 636.5532012 C328.73022554 636.55311809 324.41122229 636.55301905 320.09221905 636.55291649 C319.23451488 636.55289654 318.37681072 636.5528766 317.49311552 636.55285605 C315.75862965 636.55281561 314.02414378 636.55277381 312.28965792 636.55273066 C285.31338492 636.55211812 258.3371245 636.55962191 231.3608551 636.57330322 C201.02281403 636.58868331 170.68478123 636.59726828 140.34673601 636.59634 C137.10810602 636.59626538 133.86947602 636.59621667 130.63084602 636.59618568 C129.83346878 636.59617403 129.03609154 636.59616238 128.21455136 636.59615037 C115.4156612 636.59611967 102.61678202 636.60248935 89.81789512 636.61111795 C76.94133062 636.61961902 64.06478208 636.62056523 51.18821632 636.61400863 C44.22061232 636.61065154 37.25304433 636.6103957 30.28544426 636.61936188 C23.89536953 636.62725896 17.50536545 636.62576283 11.11529238 636.61707775 C8.81521753 636.6155498 6.51513733 636.617332 4.21506881 636.62293782 C-15.51504474 636.66780378 -34.82170397 636.06428671 -53.82981873 630.36749268 C-54.49948669 630.17735596 -55.16915466 629.98721924 -55.8591156 629.7913208 C-81.14589124 622.54956815 -104.93423509 609.55164279 -124.82981873 592.36749268 C-125.99964294 591.36202393 -125.99964294 591.36202393 -127.19309998 590.33624268 C-138.94751536 579.98785784 -149.60901058 569.03738526 -158.82981873 556.36749268 C-159.24296326 555.80401123 -159.65610779 555.24052979 -160.08177185 554.65997314 C-172.72175419 537.1973668 -181.79872488 517.66955138 -188.82981873 497.36749268 C-189.44083435 495.6891333 -189.44083435 495.6891333 -190.06419373 493.97686768 C-195.8567615 476.95563006 -197.97570939 458.07702575 -197.98371887 440.17816162 C-197.98810113 438.97529589 -197.99248338 437.77243016 -197.99699843 436.53311396 C-198.00799723 433.21543433 -198.0145902 429.89780133 -198.01917958 426.58011031 C-198.02517218 422.99283524 -198.03677292 419.40557714 -198.04747009 415.8183136 C-198.07191491 407.16336397 -198.08661168 398.50840876 -198.09953016 389.85343528 C-198.10324855 387.40379599 -198.10722126 384.95415725 -198.11128283 382.50451851 C-198.13653108 367.25356488 -198.15855819 352.00261022 -198.17101097 336.75164032 C-198.1739401 333.22433977 -198.17690184 329.69703925 -198.17991638 326.16973877 C-198.18103546 324.8548908 -198.18103546 324.8548908 -198.18217714 323.51348025 C-198.19480275 309.34655404 -198.22799251 295.17975413 -198.26971821 281.01288682 C-198.31232016 266.42741035 -198.33572712 251.84199818 -198.34093153 237.25645971 C-198.34432556 229.08383543 -198.35584041 220.91140833 -198.38903427 212.73884583 C-198.41728854 205.77149571 -198.42792475 198.80438325 -198.41683881 191.83698034 C-198.41171558 188.29346432 -198.4141142 184.75044384 -198.43930435 181.20700264 C-198.69991225 137.47530882 -186.17590021 97.27344096 -156.82981873 64.36749268 C-156.23813904 63.65464111 -155.64645935 62.94178955 -155.03684998 62.20733643 C-131.09725706 33.42071482 -95.38860069 15.61005312 -59.70481873 6.49249268 C-58.63473572 6.21816406 -57.56465271 5.94383545 -56.46214294 5.66119385 C-37.71013574 1.14775649 -19.23480833 -0.0719081 0 0 Z " fill="#00344A" transform="translate(264.82981872558594,221.63250732421875)"/>
<path d="M0 0 C1.32059449 0.71665095 2.64164715 1.43245822 3.96313477 2.14746094 C12.82229741 6.95646028 21.60221486 11.90476042 30.35302734 16.90795898 C37.81221202 21.15597058 45.39609008 25.12600896 53.02587891 29.05712891 C59.58566593 32.45386482 66.02920533 36.01389722 72.4375 39.6875 C82.05592284 45.19721281 91.81436919 50.40662459 101.625 55.5625 C112.11206421 61.0746209 122.50945013 66.68998899 132.78515625 72.58984375 C141.29577534 77.44440741 149.95353056 82.00428032 158.625 86.5625 C169.24062142 92.14321333 179.7829411 97.8072925 190.1784668 103.79199219 C195.36502421 106.76484943 200.59864901 109.62075398 205.90234375 112.37890625 C207.16619363 113.04009131 208.43002827 113.70130549 209.69384766 114.36254883 C212.10908652 115.62512215 214.53157183 116.86741675 216.96240234 118.1003418 C230.015567 124.91443043 241.55412034 134.8727873 247.625 148.5625 C249.9642585 157.5470406 249.76774883 166.90001182 245.5 175.18359375 C238.22679115 184.41147748 228.01269369 188.76667308 217.71484375 193.828125 C215.94241834 194.70999728 214.17050073 195.59289081 212.39906311 196.47674561 C207.7394245 198.79797977 203.07260879 201.10441416 198.40423584 203.40802002 C194.65731815 205.25987085 190.91548396 207.12184964 187.17394161 208.9845314 C172.25585774 216.41086504 157.33022283 223.81282398 142.28344727 230.97558594 C131.83245039 235.95443384 121.46235669 241.08362594 111.11740112 246.27871704 C108.07741338 247.80528124 105.03605094 249.32907797 101.99438477 250.85229492 C95.53676812 254.0867281 89.08075254 257.3243481 82.625 260.5625 C75.12473414 264.32457111 67.62375705 268.0852107 60.12106323 271.84243774 C57.17238428 273.31994 54.22495125 274.7999049 51.27758789 276.2800293 C40.6958458 281.58504209 30.07036116 286.78481346 19.37795258 291.8635025 C11.11003474 295.7906827 2.93313552 299.88000926 -5.22290039 304.03442383 C-6.97103854 304.92359381 -8.72181415 305.80757245 -10.47265625 306.69140625 C-11.96551147 307.45046265 -11.96551147 307.45046265 -13.48852539 308.22485352 C-27.76968176 314.84300929 -45.86701748 312.72230937 -60.375 307.5625 C-71.13319709 303.16534941 -78.43039362 298.55732549 -83.4296875 287.9296875 C-84.91754687 284.20389089 -85.50020503 280.98288181 -85.50922108 276.97246265 C-85.51367892 276.05043232 -85.51813676 275.12840198 -85.52272969 274.17843133 C-85.52254533 273.16901143 -85.52236097 272.15959152 -85.52217102 271.11958313 C-85.52584771 270.0444577 -85.5295244 268.96933227 -85.5333125 267.86162728 C-85.54435573 264.24669529 -85.54819427 260.63179204 -85.55200195 257.0168457 C-85.55826608 254.42990528 -85.56491284 251.84296576 -85.57191467 249.25602722 C-85.59166321 241.48450743 -85.60174297 233.71298637 -85.61064246 225.94144776 C-85.61502776 222.28009362 -85.62039392 218.61874093 -85.62563133 214.95738792 C-85.64264154 202.78369732 -85.65713546 190.61000761 -85.66438007 178.43630695 C-85.66628991 175.27825736 -85.66821025 172.12020777 -85.67016602 168.9621582 C-85.67064976 168.1772587 -85.6711335 167.3923592 -85.6716319 166.58367487 C-85.6799313 153.87030665 -85.7052676 141.15703255 -85.73774669 128.44370542 C-85.77083259 115.38624015 -85.78883019 102.32882268 -85.79202431 89.27131528 C-85.79418793 81.94199516 -85.80291485 74.61281232 -85.82848549 67.2835331 C-85.85248745 60.38804179 -85.85600856 53.49280114 -85.84572411 46.59727669 C-85.84522809 44.06771778 -85.85156784 41.53814682 -85.86528015 39.00862503 C-85.88296724 35.55223206 -85.8759075 32.09672867 -85.86274719 28.64033508 C-85.87371644 27.64206878 -85.88468568 26.64380249 -85.89598733 25.61528569 C-85.81377112 16.65609647 -82.97112023 9.14265722 -76.79296875 2.54296875 C-53.35462562 -16.654511 -24.95626002 -13.7584603 0 0 Z " fill="#EFE9DF" transform="translate(481.375,381.4375)"/>
</svg>
