<svg xmlns="http://www.w3.org/2000/svg" xmlns:xlink="http://www.w3.org/1999/xlink" width="1080" zoomAndPan="magnify" viewBox="0 0 810 809.999993" height="1080" preserveAspectRatio="xMidYMid meet" version="1.2">
<defs>
<clipPath id="circular_clip">
<circle cx="405" cy="405" r="374.5"/>
</clipPath>
</defs>
<g id="circular_play_button">
<!-- Beige circular background -->
<circle cx="405" cy="405" r="374.5" style="fill:#F0EAE0;fill-opacity:1;stroke:none;"/>

<!-- Main content clipped to circle -->
<g clip-path="url(#circular_clip)">
<!-- White circular background -->
<circle cx="405" cy="405" r="374.5" style="fill:#F0EAE0;fill-opacity:1;stroke:none;"/>

<!-- Play button triangle -->
<path style="stroke:none;fill-rule:nonzero;fill:#00344a;fill-opacity:1;" d="M 297.070312 304.328125 C 297.070312 299.695312 297.671875 290.953125 308.769531 284.496094 C 318.660156 278.746094 338.503906 274.214844 350.652344 280.964844 L 528.824219 377.898438 C 537.96875 383.113281 547.800781 394.179688 547.671875 406.152344 C 547.589844 413.960938 543.382812 420.894531 536.367188 424.707031 L 535.914062 424.976562 L 350.289062 516.890625 C 346.117188 519.042969 341.28125 519.921875 335.957031 519.921875 C 325.515625 519.925781 314.792969 516.542969 308.375 512.703125 C 297.621094 506.28125 297.070312 497.699219 297.070312 493.152344 Z"/>
</g>
</g>
</svg>