<svg width="383" height="44" viewBox="0 0 383 44" fill="none" xmlns="http://www.w3.org/2000/svg">
<g clip-path="url(#clip0_2817_265)" filter="url(#filter0_d_2817_265)">
<path d="M259.454 1.72526C259.454 0.960286 258.835 0.341797 258.07 0.341797H251.967C249.591 0.341797 246.449 0.341797 244.968 0.341797C234.763 0.341797 230.238 7.66602 230.238 16.6829C230.238 25.6999 234.503 33.0241 244.968 33.0241C250.404 33.0241 253.367 30.8431 254.945 27.4089V30.5339C254.945 31.9173 256.068 33.0404 257.452 33.0404H261.651V32.8288H261.195C260.235 32.8288 259.454 32.0475 259.454 31.0872V1.72526ZM254.945 25.5046C253.871 29.8503 251.234 32.2754 245.993 32.2754C238.506 32.2754 234.812 23.6165 234.812 16.6829C234.812 10.7747 237.676 0.878906 245.993 0.878906H253.871C254.473 0.878906 254.962 1.36719 254.962 1.9694V25.5046H254.945Z" fill="#D9C2A6" style="fill:#D9C2A6;fill:color(display-p3 0.8510 0.7608 0.6510);fill-opacity:1;"/>
<path d="M345.635 1.72526C345.635 0.960286 345.017 0.341797 344.252 0.341797H338.148C335.772 0.341797 332.631 0.341797 331.15 0.341797C320.945 0.341797 316.42 7.66602 316.42 16.6829C316.42 25.6999 320.684 33.0241 331.15 33.0241C336.586 33.0241 339.548 30.8431 341.127 27.4089V30.5339C341.127 31.9173 342.25 33.0404 343.633 33.0404H347.833V32.8288H347.377C346.417 32.8288 345.635 32.0475 345.635 31.0872V1.72526ZM341.127 25.5046C340.053 29.8503 337.416 32.2754 332.175 32.2754C324.688 32.2754 320.993 23.6165 320.993 16.6829C320.993 10.7747 323.858 0.878906 332.175 0.878906H340.053C340.655 0.878906 341.143 1.36719 341.143 1.9694V25.5046H341.127Z" fill="#D9C2A6" style="fill:#D9C2A6;fill:color(display-p3 0.8510 0.7608 0.6510);fill-opacity:1;"/>
<path d="M114.761 0.341797H107.763H98.4854V0.553385H98.8597C99.8688 0.553385 100.683 1.36719 100.683 2.3763V31.4779C100.683 32.2428 100.064 32.8613 99.2992 32.8613H98.4854V33.0729H104.784V27.4414C106.363 30.8757 109.325 33.0566 114.761 33.0566C125.227 33.0566 129.491 25.7324 129.491 16.7155C129.491 7.69857 124.95 0.341797 114.761 0.341797ZM113.736 32.2591C108.479 32.2591 105.858 29.834 104.784 25.4883V2.26237C104.784 1.4974 105.403 0.878906 106.168 0.878906H113.736C122.053 0.878906 124.918 10.7747 124.918 16.6829C124.918 23.6165 121.223 32.2754 113.736 32.2754V32.2591Z" fill="#D9C2A6" style="fill:#D9C2A6;fill:color(display-p3 0.8510 0.7608 0.6510);fill-opacity:1;"/>
<path d="M226.916 31.7871V1.44857C226.916 0.960286 227.306 0.553385 227.811 0.553385H228.12V0.341797H222.537L222.456 0.488281L211.991 16.7806L200.776 0.553385L200.63 0.341797H194.478V0.553385H194.901C195.991 0.553385 196.886 1.44857 196.886 2.53906V31.5267C196.886 32.2591 196.284 32.8613 195.552 32.8613H193.599V33.0729H201.004V32.8613H199.051C198.319 32.8613 197.716 32.2591 197.716 31.5267V3.04362L210.2 21.0937L211.453 19.1569L222.456 2.05078V31.8034C222.456 32.3893 221.984 32.8613 221.398 32.8613H220.373V33.0729H229.032V32.8613H228.006C227.42 32.8613 226.948 32.3893 226.948 31.8034L226.916 31.7871Z" fill="#D9C2A6" style="fill:#D9C2A6;fill:color(display-p3 0.8510 0.7608 0.6510);fill-opacity:1;"/>
<path d="M69.986 32.6169V2.26204C69.986 1.77376 70.3766 1.36686 70.8812 1.36686H71.1904V1.15527H65.6077L65.5264 1.30176L55.0609 17.5941L43.8467 1.38314L43.7002 1.17155H37.5479V1.38314H37.971C39.0615 1.38314 39.9567 2.27832 39.9567 3.36882V32.3564C39.9567 33.0889 39.3545 33.6911 38.6221 33.6911H36.6689V33.9027H44.0745V33.6911H42.1214C41.389 33.6911 40.7868 33.0889 40.7868 32.3564V3.87337L53.2705 21.9235L54.5238 19.9867L65.5264 2.88053V32.6331C65.5264 33.2191 65.0544 33.6911 64.4684 33.6911H63.443V33.9027H72.1019V33.6911H71.0765C70.4906 33.6911 70.0186 33.2191 70.0186 32.6331L69.986 32.6169Z" fill="#D9C2A6" style="fill:#D9C2A6;fill:color(display-p3 0.8510 0.7608 0.6510);fill-opacity:1;"/>
<path d="M316.989 31.8197L302.796 14.502L313.392 1.82292C314.059 1.02539 315.052 0.553385 316.11 0.553385H317.021V0.341797H309.827V0.553385H310.153C311.536 0.553385 312.301 2.18099 311.406 3.23893L297.278 20.1335C296.953 20.5241 296.302 20.2962 296.302 19.7754V1.98568C296.302 1.18815 296.937 0.553385 297.734 0.553385H298.385V0.341797H289.726V0.553385H290.377C291.175 0.553385 291.81 1.18815 291.81 1.98568V31.7383C291.81 32.3568 291.305 32.8613 290.687 32.8613H289.71V33.0729H298.369V32.8613H297.392C296.774 32.8613 296.269 32.3568 296.269 31.7383V22.2819L300.241 17.5456L311.731 32.0313C312.415 32.7474 313.375 33.1706 314.368 33.1706H319.609V32.959C318.616 32.959 317.656 32.5521 316.972 31.8359L316.989 31.8197Z" fill="#D9C2A6" style="fill:#D9C2A6;fill:color(display-p3 0.8510 0.7608 0.6510);fill-opacity:1;"/>
<path d="M284.537 0.635417C286.393 0.635417 288.069 1.79102 288.72 3.51628L288.916 3.45117L287.63 -0.015625H287.581H262.288V0.0332031L261.36 3.71159L261.556 3.76042C262.028 1.90495 263.688 0.602865 265.608 0.602865H270.296C271.647 0.602865 272.754 1.69336 272.754 3.06055V31.2344C272.754 32.0482 272.103 32.6992 271.289 32.6992H270.67V32.9108H279.313V32.6992H278.694C277.881 32.6992 277.229 32.0482 277.229 31.2344V3.0931C277.229 1.74219 278.32 0.635417 279.687 0.635417H284.554H284.537Z" fill="#D9C2A6" style="fill:#D9C2A6;fill:color(display-p3 0.8510 0.7608 0.6510);fill-opacity:1;"/>
<path d="M375.173 31.3965L367.165 20.0195C371.804 18.5872 373.773 14.86 373.773 10.498C373.773 4.88281 370.306 0.341797 362.51 0.341797H358.881H350.222V0.553385H351.149C351.784 0.553385 352.305 1.07422 352.305 1.70898V31.4616C352.305 32.2266 351.687 32.8451 350.922 32.8451H350.222V33.0566H358.881V32.8451H358.181C357.416 32.8451 356.797 32.2266 356.797 31.4616V19.2546C358.116 20.1497 359.955 20.6706 362.526 20.6706C362.624 20.6706 362.722 20.6706 362.819 20.6706L370.485 31.6244C371.169 32.6009 372.292 33.1868 373.48 33.1706H376.426H379.014V32.959H378.151C376.963 32.959 375.856 32.3893 375.189 31.4128L375.173 31.3965ZM362.461 20.1497C362.217 20.166 361.989 20.1823 361.729 20.1823C359.515 20.1823 357.92 19.7266 356.781 18.8639V1.79036C356.781 1.17188 357.285 0.683594 357.888 0.683594H361.729C368.076 0.683594 370.274 6.83594 370.274 10.498C370.274 13.444 368.955 16.8945 366.286 18.7826C365.228 19.5312 363.942 20.0358 362.445 20.166L362.461 20.1497Z" fill="#D9C2A6" style="fill:#D9C2A6;fill:color(display-p3 0.8510 0.7608 0.6510);fill-opacity:1;"/>
<path d="M192.235 0.423503H192.382V0.211914H185.464V0.423503H185.66C186.245 0.423503 186.717 0.895508 186.717 1.48145V25.9118C185.008 29.5739 181.298 32.113 176.984 32.113C171.044 32.113 166.242 27.2952 166.242 21.3708V1.09082C166.242 0.732747 166.535 0.439779 166.893 0.439779H166.975V0.22819H161.115V0.439779H161.359C161.717 0.439779 162.01 0.732747 162.01 1.09082V20.557C162.01 27.3766 167.544 32.9105 174.364 32.9105H176.057C180.598 32.9105 184.569 30.4528 186.717 26.807V30.3714C186.717 31.7874 187.873 32.943 189.289 32.943H192.398V32.7314C191.73 32.7314 191.193 32.1943 191.193 31.527V1.48145C191.193 0.895508 191.665 0.423503 192.251 0.423503H192.235Z" fill="#D9C2A6" style="fill:#D9C2A6;fill:color(display-p3 0.8510 0.7608 0.6510);fill-opacity:1;"/>
<path d="M160.298 0.423503V0.211914H152.273V0.423503H152.778C153.478 0.423503 154.048 0.993164 154.048 1.69303V16.2764C154.048 16.9925 153.462 17.5785 152.745 17.5785H138.878C138.162 17.5785 137.576 16.9925 137.576 16.2764V1.41634C137.576 0.879232 138.016 0.439779 138.553 0.439779H139.35V0.22819H131.326V0.439779H132.124C132.661 0.439779 133.1 0.879232 133.1 1.41634V31.8525C133.1 32.3408 132.71 32.7314 132.221 32.7314H131.603V32.943H139.057V32.7314H138.439C137.951 32.7314 137.56 32.3408 137.56 31.8525V19.141C137.56 18.5062 138.064 18.0016 138.699 18.0016H152.811C153.478 18.0016 154.015 18.5387 154.015 19.2061V31.5107C154.015 32.1781 153.478 32.7314 152.794 32.7314H152.518V32.943H159.972V32.7314H159.695C159.028 32.7314 158.475 32.1943 158.475 31.5107V1.70931C158.475 1.00944 159.044 0.439779 159.744 0.439779H160.249L160.298 0.423503Z" fill="#D9C2A6" style="fill:#D9C2A6;fill:color(display-p3 0.8510 0.7608 0.6510);fill-opacity:1;"/>
<path d="M20.4062 0C11.3405 0 4 7.84505 4 17.5293C4 27.2135 11.3405 35.0586 20.4062 35.0586C29.472 35.0586 36.8125 27.2135 36.8125 17.5293C36.8125 7.84505 29.4557 0 20.4062 0ZM21.8223 34.554C15.263 35.1074 9.28971 27.9297 8.50846 18.5221C7.72721 9.13086 12.3984 1.05794 18.974 0.504557C25.5332 -0.0488281 31.5065 7.12891 32.2878 16.5365C33.069 25.944 28.3978 34.0007 21.8223 34.554Z" fill="#D9C2A6" style="fill:#D9C2A6;fill:color(display-p3 0.8510 0.7608 0.6510);fill-opacity:1;"/>
</g>
<defs>
<filter id="filter0_d_2817_265" x="0" y="0" width="383" height="43.0586" filterUnits="userSpaceOnUse" color-interpolation-filters="sRGB">
<feFlood flood-opacity="0" result="BackgroundImageFix"/>
<feColorMatrix in="SourceAlpha" type="matrix" values="0 0 0 0 0 0 0 0 0 0 0 0 0 0 0 0 0 0 127 0" result="hardAlpha"/>
<feOffset dy="4"/>
<feGaussianBlur stdDeviation="2"/>
<feComposite in2="hardAlpha" operator="out"/>
<feColorMatrix type="matrix" values="0 0 0 0 0 0 0 0 0 0 0 0 0 0 0 0 0 0 0.25 0"/>
<feBlend mode="normal" in2="BackgroundImageFix" result="effect1_dropShadow_2817_265"/>
<feBlend mode="normal" in="SourceGraphic" in2="effect1_dropShadow_2817_265" result="shape"/>
</filter>
<clipPath id="clip0_2817_265">
<rect width="375" height="35.0586" fill="white" style="fill:white;fill-opacity:1;" transform="translate(4)"/>
</clipPath>
</defs>
</svg>
