<svg width="90" height="91" viewBox="0 0 90 91" fill="none" xmlns="http://www.w3.org/2000/svg">
<g clip-path="url(#clip0_2817_7)">
<path d="M84.7475 48.6341C82.1145 44.3604 78.4062 40.8461 74.0217 38.4626C69.7702 36.1512 64.9644 34.9484 60.1253 34.9705H45.3254C46.0903 34.4162 46.5892 33.5183 46.5892 32.5039V6.47933C46.5892 6.41836 46.5892 6.36293 46.5892 6.3075C46.5338 5.33193 47.332 4.52264 48.3075 4.52264H52.7143V3.43066H43.5683C43.5683 3.43066 43.5516 3.43066 43.5405 3.43066H40.8965C40.8965 3.43066 40.9353 3.43066 40.9519 3.43066H28.8848C23.2253 3.43066 18.6412 8.01475 18.6412 13.6742H19.6501C19.6501 8.61894 23.7464 4.52264 28.8016 4.52264H44.505L44.4884 32.5039C44.4884 33.3741 43.9729 34.1612 43.2357 34.7211C43.1692 34.6934 43.025 34.8708 43.025 34.8708C42.9474 34.9262 42.8643 34.9761 42.7811 35.0204H35.6195V36.3397H39.993L39.9653 36.3507C41.0961 36.3507 44.5826 37.415 44.8154 40.7685L44.7157 82.8679C44.7157 85.6228 42.759 87.9619 41.1792 88.4276C41.1626 88.4276 41.1515 88.4331 41.1404 88.4386C41.0628 88.4553 40.9852 88.4719 40.9076 88.4885C40.8633 88.4941 40.8189 88.4996 40.7746 88.5052L40.7912 88.5162C33.9067 90.0572 26.8227 88.871 20.8086 85.1627C16.8065 82.6961 13.5139 79.2206 11.2856 75.1132C9.12384 71.1277 7.99306 66.6268 8.01523 62.0815V50.2028C8.01523 48.4346 9.44533 47.0045 11.2136 47.0045H16.9395V45.6852H0V47.0045H2.9877C4.75592 47.0045 6.18603 48.4346 6.18603 50.2028V62.0815C6.16385 66.9206 7.37224 71.7319 9.67814 75.9834C12.0616 80.368 15.5759 84.0763 19.8496 86.7092C24.4392 89.5362 29.6109 90.994 34.8712 90.994C37.5984 90.994 40.3478 90.606 43.0472 89.8133C49.9095 87.8012 55.7297 83.3169 59.4546 77.214C62.7638 71.7929 64.1662 65.5958 63.5065 59.2878C62.8636 53.1406 60.214 47.265 56.0401 42.7474C54.9093 41.5224 53.6566 40.3861 52.3262 39.3772L52.2098 39.2886C51.5114 38.7564 50.7853 38.2077 49.9538 37.7587C49.3884 37.4538 48.7011 37.1157 47.9805 36.7776H60.1308C60.1752 36.7776 60.2195 36.7776 60.2639 36.7776C64.7537 36.7776 69.2103 37.9083 73.157 40.0535C77.2644 42.2818 80.7398 45.5744 83.2065 49.5764C90.9945 62.209 87.0478 78.8215 74.4152 86.6094L75.3686 88.1559C88.8548 79.8469 93.0676 62.1092 84.7585 48.623L84.7475 48.6341Z" fill="#D9C2A6" style="fill:#D9C2A6;fill:color(display-p3 0.8510 0.7608 0.6510);fill-opacity:1;"/>
<path d="M71.1743 28.009C72.5046 28.3249 73.846 28.4802 75.1708 28.4802C79.6662 28.4802 84.0009 26.7008 87.2657 23.4027L85.9742 22.1223C82.1939 25.9414 76.8171 27.4824 71.59 26.2408C67.6212 25.2985 64.2621 22.8706 62.1225 19.4007C59.9829 15.9307 59.3233 11.8344 60.2656 7.86561L58.4974 7.44434C57.4442 11.8843 58.1814 16.4684 60.576 20.3485C62.9706 24.2342 66.7343 26.9503 71.1688 28.009H71.1743Z" fill="#D9C2A6" style="fill:#D9C2A6;fill:color(display-p3 0.8510 0.7608 0.6510);fill-opacity:1;"/>
<path d="M75.5733 20.1545C81.1274 20.1545 85.6506 15.6369 85.6506 10.0772C85.6506 4.51757 81.133 0 75.5733 0C70.0137 0 65.4961 4.52312 65.4961 10.0772C65.4961 15.6314 70.0192 20.1545 75.5733 20.1545ZM76.2219 1.34696C80.7505 1.67954 84.3313 5.46543 84.3313 10.0772C84.3313 14.3066 81.3215 17.843 77.3305 18.6579C75.5844 18.6579 74.8694 18.1313 74.8694 17.0725C74.8694 15.9196 74.825 4.4954 74.825 3.75818C74.825 3.13736 74.6975 1.76269 76.2163 1.3525L76.2219 1.34696Z" fill="#D9C2A6" style="fill:#D9C2A6;fill:color(display-p3 0.8510 0.7608 0.6510);fill-opacity:1;"/>
</g>
<defs>
<clipPath id="clip0_2817_7">
<rect width="89.0101" height="91" fill="white" style="fill:white;fill-opacity:1;"/>
</clipPath>
</defs>
</svg>
